<?xml version="1.0" encoding="utf-8"?><svg xmlns="http://www.w3.org/2000/svg" xmlns:xlink="http://www.w3.org/1999/xlink"><symbol viewBox="0 0 16 16" class="abi abi-arrows-collapse" fill="currentColor" id="arrows-collapse" xmlns="http://www.w3.org/2000/svg"><path fill-rule="evenodd" d="M2 8a.5.5 0 01.5-.5h11a.5.5 0 010 1h-11A.5.5 0 012 8zm6-7a.5.5 0 01.5.5V6a.5.5 0 01-1 0V1.5A.5.5 0 018 1z"/><path fill-rule="evenodd" d="M10.354 3.646a.5.5 0 010 .708l-2 2a.5.5 0 01-.708 0l-2-2a.5.5 0 11.708-.708L8 5.293l1.646-1.647a.5.5 0 01.708 0zM8 15a.5.5 0 00.5-.5V10a.5.5 0 00-1 0v4.5a.5.5 0 00.5.5z"/><path fill-rule="evenodd" d="M10.354 12.354a.5.5 0 000-.708l-2-2a.5.5 0 00-.708 0l-2 2a.5.5 0 00.708.708L8 10.707l1.646 1.647a.5.5 0 00.708 0z"/></symbol><symbol viewBox="0 0 16 16" class="bbi bbi-arrows-expand" fill="currentColor" id="arrows-expand" xmlns="http://www.w3.org/2000/svg"><path fill-rule="evenodd" d="M2 8a.5.5 0 01.5-.5h11a.5.5 0 010 1h-11A.5.5 0 012 8zm6-1.5a.5.5 0 00.5-.5V1.5a.5.5 0 00-1 0V6a.5.5 0 00.5.5z"/><path fill-rule="evenodd" d="M10.354 3.854a.5.5 0 000-.708l-2-2a.5.5 0 00-.708 0l-2 2a.5.5 0 10.708.708L8 2.207l1.646 1.647a.5.5 0 00.708 0zM8 9.5a.5.5 0 01.5.5v4.5a.5.5 0 01-1 0V10a.5.5 0 01.5-.5z"/><path fill-rule="evenodd" d="M10.354 12.146a.5.5 0 010 .708l-2 2a.5.5 0 01-.708 0l-2-2a.5.5 0 01.708-.708L8 13.793l1.646-1.647a.5.5 0 01.708 0z"/></symbol><symbol viewBox="0 0 16 16" class="cbi cbi-link-45deg" fill="currentColor" id="link-45deg" xmlns="http://www.w3.org/2000/svg"><path d="M4.715 6.542L3.343 7.914a3 3 0 104.243 4.243l1.828-1.829A3 3 0 008.586 5.5L8 6.086a1.001 1.001 0 00-.154.199 2 2 0 01.861 3.337L6.88 11.45a2 2 0 11-2.83-2.83l.793-.792a4.018 4.018 0 01-.128-1.287z"/><path d="M5.712 6.96l.167-.167a1.99 1.99 0 01.896-.518 1.99 1.99 0 01.518-.896l.167-.167A3.004 3.004 0 006 5.499c-.22.46-.316.963-.288 1.46z"/><path d="M6.586 4.672A3 3 0 007.414 9.5l.775-.776a2 2 0 01-.896-3.346L9.12 3.55a2 2 0 012.83 2.83l-.793.792c.112.42.155.855.128 1.287l1.372-1.372a3 3 0 00-4.243-4.243L6.586 4.672z"/><path d="M10 9.5a2.99 2.99 0 00.288-1.46l-.167.167a1.99 1.99 0 01-.896.518 1.99 1.99 0 01-.518.896l-.167.167A3.004 3.004 0 0010 9.501z"/></symbol></svg>